HIERARCHY
ROOT Hips
{
	OFFSET 0.000000 0.000000 0.000000
	CHANNELS 6 Xposition Yposition Zposition Zrotation Yrotation Xrotation 
	JOINT LHipJoint
	{
		OFFSET 0.000000 0.000000 0.000000
		CHANNELS 3 Zrotation Yrotation Xrotation
		JOINT LeftUpLeg
		{
			OFFSET 1.363060 -1.794630 0.839290
			CHANNELS 3 Zrotation Yrotation Xrotation
			JOINT LeftLeg
			{
				OFFSET 2.448110 -6.726130 0.000000
				CHANNELS 3 Zrotation Yrotation Xrotation
				JOINT LeftFoot
				{
					OFFSET 2.562200 -7.039590 0.000000
					CHANNELS 3 Zrotation Yrotation Xrotation
					JOINT LeftToeBase
					{
						OFFSET 0.157640 -0.433110 2.322550
						CHANNELS 3 Zrotation Yrotation Xrotation
						End Site
						{
							OFFSET 0.000000 0.000000 0.000000
						}
					}
				}
			}
		}
	}
	JOINT RHipJoint
	{
		OFFSET 0.000000 0.000000 0.000000
		CHANNELS 3 Zrotation Yrotation Xrotation
		JOINT RightUpLeg
		{
			OFFSET -1.305520 -1.794630 0.839290
			CHANNELS 3 Zrotation Yrotation Xrotation
			JOINT RightLeg
			{
				OFFSET -2.542530 -6.985550 0.000000
				CHANNELS 3 Zrotation Yrotation Xrotation
				JOINT RightFoot
				{
					OFFSET -2.568260 -7.056230 0.000000
					CHANNELS 3 Zrotation Yrotation Xrotation
					JOINT RightToeBase
					{
						OFFSET -0.164730 -0.452590 2.363150
						CHANNELS 3 Zrotation Yrotation Xrotation
						End Site
						{
							OFFSET 0.000000 0.000000 0.000000
						}
					}
				}
			}
		}
	}
}
MOTION
Frames: 19
Frame Time: 0.008333
-0.596519 16.806707 -0.225097 8.259682 84.308306 14.399539 -9.759596 0.925081 1.122707 -18.558171 9.281512 -35.470949 -2.269437 0.389214 24.399641 2.423823 12.933030 -8.035083 0.224401 0.000000 -3.048300 10.890679 -4.537902 -0.640818 -2.971011 -12.863388 -0.907561 0.892533 -2.878102 37.007346 0.878367 22.491753 13.372068 7.236700 0.000000 -85.989900
-0.445979 16.766953 -0.244076 11.879491 84.350273 17.921084 -9.657476 0.941869 1.012528 -19.089279 9.212295 -35.733416 -2.215841 0.521379 26.375641 2.461876 13.009831 -8.739111 0.029999 -0.000000 -2.342099 11.148951 -4.532279 -0.611041 -3.869166 -12.887164 -2.381266 0.639974 -3.087235 40.212556 0.726121 23.033194 15.084853 8.161500 -0.000000 -85.641700
-0.300755 16.723099 -0.263768 15.349901 84.403952 21.292786 -9.532298 0.959358 0.901743 -19.606682 9.073234 -35.963541 -2.160275 0.650780 28.375327 2.508656 13.079033 -9.615704 -0.212000 -0.000000 -1.750700 11.413236 -4.489176 -0.603667 -4.684452 -12.878556 -3.902138 0.383320 -3.295186 43.525027 0.566687 23.093834 16.668070 8.891100 -0.000000 -84.451300
-0.160879 16.675730 -0.284302 18.700157 84.468792 24.535009 -9.390082 0.979156 0.787736 -20.107736 8.885582 -36.131653 -2.105450 0.775376 30.351619 2.564683 13.151407 -10.641983 -0.496500 -0.000000 -1.268100 11.679136 -4.408764 -0.622349 -5.417834 -12.846613 -5.448170 0.121736 -3.504676 46.919841 0.403691 22.573897 18.042414 9.306501 -0.000000 -82.540700
-0.026189 16.625710 -0.305507 22.037081 84.544120 27.748819 -9.230918 1.003620 0.668830 -20.602857 8.663355 -36.207969 -2.054154 0.892005 32.252017 2.631283 13.243679 -11.785427 -0.816901 -0.000001 -0.882900 11.949181 -4.292019 -0.668441 -6.086503 -12.806460 -7.006602 -0.146461 -3.718515 50.370499 0.236431 21.412882 19.141186 9.319500 -0.000000 -80.098700
0.103521 16.574143 -0.327476 25.369118 84.622753 30.937292 -9.058240 1.034966 0.541963 -21.092644 8.430698 -36.175121 -2.009058 0.999799 34.035078 2.708226 13.363717 -13.012002 -1.166600 -0.000000 -0.576800 12.221535 -4.139210 -0.740669 -6.694720 -12.756232 -8.561145 -0.423209 -3.937080 53.840845 0.061601 19.584073 19.899866 8.879500 -0.000001 -77.319700
0.228541 16.522331 -0.350437 28.660301 84.696602 34.061660 -8.877780 1.074548 0.404427 -21.573013 8.211469 -36.024664 -1.972166 1.098976 35.669100 2.794251 13.514270 -14.286425 -1.538700 -0.000000 -0.328300 12.491804 -3.951184 -0.835778 -7.242058 -12.687296 -10.098060 -0.709397 -4.158939 57.290379 -0.126590 17.110449 20.271386 7.993999 0.000000 -74.355100
0.349245 16.471533 -0.374367 31.917527 84.758436 37.129275 -8.691542 1.123797 0.255059 -22.047561 8.019535 -35.753334 -1.944842 1.189574 37.127477 2.887955 13.697496 -15.570652 -1.925200 0.000000 -0.113499 12.758940 -3.729423 -0.948805 -7.736637 -12.591850 -11.609907 -1.003793 -4.382427 60.677492 -0.334217 14.072253 20.219079 6.728200 0.000000 -71.270200
0.466085 16.422987 -0.399385 35.109057 84.802160 40.111026 -8.503764 1.183054 0.093118 -22.514736 7.867477 -35.365612 -1.927814 1.272464 38.394754 2.986497 13.907664 -16.829563 177.682599 -0.000000 -0.091200 13.019221 -3.476926 -1.073910 -8.180701 -12.457860 -13.090264 -1.303339 -4.605010 63.957779 -0.565714 10.597158 19.724621 5.194100 0.000000 -68.047700
0.579548 16.377833 -0.425569 38.194496 84.825685 42.971353 -8.319591 1.251486 -0.081017 -22.969863 7.762547 -34.872429 -1.921107 1.348775 39.466362 3.085888 14.132301 -18.032128 177.294300 0.000000 -0.305600 13.267917 -3.198767 -1.204930 -8.573167 -12.274339 -14.535498 -1.603430 -4.823808 67.086584 -0.822084 6.852866 18.794018 3.534600 -0.000000 -64.620500
0.690202 16.337077 -0.452931 41.172945 84.830607 45.715264 -8.141312 1.328373 -0.265417 -23.410651 7.702813 -34.283478 -1.924354 1.419091 40.340793 3.182040 14.357477 -19.150340 176.920800 -0.000000 -0.542700 13.502866 -2.901113 -1.335929 -8.917250 -12.035574 -15.942589 -1.898540 -5.035920 70.019489 -1.099482 3.032685 17.463108 1.903200 -0.000000 -60.920400
0.798646 16.301460 -0.481632 44.011679 84.823876 48.318741 -7.975108 1.411471 -0.457144 -23.826612 7.686653 -33.618861 -1.936914 1.484514 41.030189 3.269793 14.561075 -20.166641 176.573000 -0.000000 -0.806501 13.718016 -2.592311 -1.460833 -9.204439 -11.736196 -17.312268 -2.182695 -5.237228 72.716202 -1.388443 -0.669056 15.794616 0.436901 0.000000 -56.912200
0.905596 16.271521 -0.511637 46.740214 84.814552 50.820269 -7.823179 1.499548 -0.651788 -24.211219 7.703407 -32.894055 -1.958185 1.545537 41.546302 3.345065 14.724385 -21.068776 176.260900 -0.000000 -1.092600 13.910788 -2.279655 -1.574917 -9.432063 -11.379131 -18.645654 -2.449759 -5.423444 75.141750 -1.674265 -4.070816 13.873002 -0.760000 0.000000 -52.616000
1.011802 16.247654 -0.542950 49.402687 84.813352 53.273830 -7.688009 1.591612 -0.844158 -24.556723 7.740930 -32.125141 -1.987783 1.602658 41.904182 3.404388 14.829275 -21.852963 175.993100 -0.000000 -1.389600 14.077942 -1.969680 -1.674567 -9.594424 -10.971052 -19.944385 -2.693477 -5.589589 77.268672 -1.938882 -7.022756 11.793762 -1.629400 0.000000 -48.106200
1.118024 16.230063 -0.575529 52.070794 84.830551 55.757338 -7.571707 1.687698 -1.027115 -24.855508 7.786008 -31.324172 -2.025559 1.655965 42.116991 3.445358 14.861279 -22.521697 175.775300 -0.000001 -1.681900 14.216382 -1.667834 -1.756464 -9.685911 -10.523423 -21.208965 -2.907447 -5.730144 79.076466 -2.163495 -9.414464 9.652549 -2.160100 -0.000000 -43.498600
1.225070 16.218760 -0.609291 54.844994 84.871956 58.379911 -7.475364 1.788007 -1.195782 -25.104570 7.824415 -30.500528 -2.072074 1.705844 42.196172 3.467330 14.812610 -23.085107 175.609400 -0.000000 -1.953500 14.323493 -1.375844 -1.821167 -9.705083 -10.052003 -22.439728 -3.085551 -5.840554 80.553605 -2.331031 -11.175396 7.534296 -2.380900 0.000000 -38.933900
1.333662 16.213703 -0.644114 57.845853 84.938808 61.263090 -7.400699 1.894159 -1.342874 -25.302354 7.845775 -29.655790 -2.127986 1.751926 42.146098 3.470539 14.680767 -23.553864 175.495000 0.000000 -2.188500 14.396410 -1.095617 -1.867499 -9.652412 -9.573001 -23.632824 -3.222192 -5.916254 81.693054 -2.428777 -12.276282 5.511369 -2.349600 -0.000001 -34.567100
1.444432 16.214750 -0.679942 61.208116 85.025350 64.543818 -7.349740 2.006698 -1.464587 -25.451334 7.841501 -28.788341 -2.194391 1.793782 41.966813 3.456568 14.469644 -23.942146 175.428100 -0.000001 -2.372900 14.431959 -0.826324 -1.897493 -9.533046 -9.102564 -24.784707 -3.313005 -5.954445 82.493450 -2.449607 -12.724222 3.642685 -2.138900 0.000000 -30.564401
1.557936 16.221726 -0.716684 65.072819 85.118557 68.360557 -7.325763 2.125817 -1.557312 -25.556374 7.807884 -27.890367 -2.272096 1.830126 41.652233 3.427500 14.187924 -24.260958 175.403900 0.000000 -2.494900 14.426426 -0.567951 -1.912128 -9.355044 -8.653779 -25.888936 -3.355332 -5.953402 82.955776 -2.393033 -12.561524 1.976164 -1.824201 -0.000000 -27.104999
